<mxfile host="app.diagrams.net" modified="2022-02-10T07:17:18.621Z" agent="5.0 (Windows NT 10.0; Win64; x64) AppleWebKit/537.36 (KHTML, like Gecko) Chrome/98.0.4758.80 Safari/537.36 Edg/98.0.1108.43" etag="HJTw-GYqBRU-bSGijph7" version="16.5.5" type="github" pages="2">
  <diagram id="C5RBs43oDa-KdzZeNtuy" name="关卡整体流程">
    <mxGraphModel dx="1422" dy="794" grid="1" gridSize="10" guides="1" tooltips="1" connect="1" arrows="1" fold="1" page="1" pageScale="1" pageWidth="1169" pageHeight="827" background="#182E3E" math="0" shadow="0">
      <root>
        <mxCell id="WIyWlLk6GJQsqaUBKTNV-0" />
        <mxCell id="WIyWlLk6GJQsqaUBKTNV-1" parent="WIyWlLk6GJQsqaUBKTNV-0" />
        <mxCell id="4TwKBGxvVmi3ybK4Pog2-3" value="" style="edgeStyle=orthogonalEdgeStyle;curved=0;rounded=1;orthogonalLoop=1;jettySize=auto;html=1;fontColor=#FFFFFF;strokeColor=#FFFFFF;" edge="1" parent="WIyWlLk6GJQsqaUBKTNV-1" source="WIyWlLk6GJQsqaUBKTNV-3" target="4TwKBGxvVmi3ybK4Pog2-2">
          <mxGeometry relative="1" as="geometry" />
        </mxCell>
        <mxCell id="WIyWlLk6GJQsqaUBKTNV-3" value="进入关卡" style="rounded=0;whiteSpace=wrap;html=1;fontSize=12;glass=0;strokeWidth=1;shadow=0;fillColor=#EEEEEE;strokeColor=#FFFFFF;fontColor=#1A1A1A;" parent="WIyWlLk6GJQsqaUBKTNV-1" vertex="1">
          <mxGeometry x="160" y="80" width="120" height="40" as="geometry" />
        </mxCell>
        <mxCell id="4TwKBGxvVmi3ybK4Pog2-5" value="" style="edgeStyle=orthogonalEdgeStyle;curved=0;rounded=1;orthogonalLoop=1;jettySize=auto;html=1;fontColor=#FFFFFF;strokeColor=#FFFFFF;" edge="1" parent="WIyWlLk6GJQsqaUBKTNV-1" source="4TwKBGxvVmi3ybK4Pog2-2" target="4TwKBGxvVmi3ybK4Pog2-7">
          <mxGeometry relative="1" as="geometry">
            <mxPoint x="460" y="120" as="targetPoint" />
            <Array as="points">
              <mxPoint x="330" y="220" />
              <mxPoint x="330" y="220" />
            </Array>
          </mxGeometry>
        </mxCell>
        <mxCell id="4TwKBGxvVmi3ybK4Pog2-6" value="是" style="edgeLabel;html=1;align=center;verticalAlign=middle;resizable=0;points=[];fontColor=#1A1A1A;" vertex="1" connectable="0" parent="4TwKBGxvVmi3ybK4Pog2-5">
          <mxGeometry x="-0.2421" y="3" relative="1" as="geometry">
            <mxPoint as="offset" />
          </mxGeometry>
        </mxCell>
        <mxCell id="4TwKBGxvVmi3ybK4Pog2-37" style="edgeStyle=orthogonalEdgeStyle;curved=0;rounded=1;orthogonalLoop=1;jettySize=auto;html=1;fontColor=#FFFFFF;strokeColor=#FFFFFF;exitX=0;exitY=0.5;exitDx=0;exitDy=0;" edge="1" parent="WIyWlLk6GJQsqaUBKTNV-1" source="4TwKBGxvVmi3ybK4Pog2-2" target="4TwKBGxvVmi3ybK4Pog2-38">
          <mxGeometry relative="1" as="geometry">
            <mxPoint x="100" y="390" as="targetPoint" />
            <mxPoint x="140" y="230" as="sourcePoint" />
          </mxGeometry>
        </mxCell>
        <mxCell id="4TwKBGxvVmi3ybK4Pog2-39" value="否" style="edgeLabel;html=1;align=center;verticalAlign=middle;resizable=0;points=[];fontColor=#1A1A1A;" vertex="1" connectable="0" parent="4TwKBGxvVmi3ybK4Pog2-37">
          <mxGeometry x="-0.4233" y="1" relative="1" as="geometry">
            <mxPoint as="offset" />
          </mxGeometry>
        </mxCell>
        <mxCell id="4TwKBGxvVmi3ybK4Pog2-2" value="检查是否有未完成的区域" style="rhombus;whiteSpace=wrap;html=1;fillColor=#EEEEEE;strokeColor=#FFFFFF;fontColor=#1A1A1A;rounded=0;glass=0;strokeWidth=1;shadow=0;" vertex="1" parent="WIyWlLk6GJQsqaUBKTNV-1">
          <mxGeometry x="145" y="180" width="150" height="80" as="geometry" />
        </mxCell>
        <mxCell id="4TwKBGxvVmi3ybK4Pog2-10" style="edgeStyle=orthogonalEdgeStyle;curved=0;rounded=1;orthogonalLoop=1;jettySize=auto;html=1;fontColor=#FFFFFF;strokeColor=#FFFFFF;" edge="1" parent="WIyWlLk6GJQsqaUBKTNV-1" source="4TwKBGxvVmi3ybK4Pog2-7" target="4TwKBGxvVmi3ybK4Pog2-8">
          <mxGeometry relative="1" as="geometry" />
        </mxCell>
        <mxCell id="4TwKBGxvVmi3ybK4Pog2-31" value="是" style="edgeLabel;html=1;align=center;verticalAlign=middle;resizable=0;points=[];fontColor=#1A1A1A;" vertex="1" connectable="0" parent="4TwKBGxvVmi3ybK4Pog2-10">
          <mxGeometry x="-0.7" y="2" relative="1" as="geometry">
            <mxPoint as="offset" />
          </mxGeometry>
        </mxCell>
        <mxCell id="4TwKBGxvVmi3ybK4Pog2-20" style="edgeStyle=orthogonalEdgeStyle;curved=0;rounded=1;orthogonalLoop=1;jettySize=auto;html=1;fontColor=#FFFFFF;strokeColor=#FFFFFF;" edge="1" parent="WIyWlLk6GJQsqaUBKTNV-1" source="4TwKBGxvVmi3ybK4Pog2-7" target="4TwKBGxvVmi3ybK4Pog2-15">
          <mxGeometry relative="1" as="geometry" />
        </mxCell>
        <mxCell id="4TwKBGxvVmi3ybK4Pog2-21" value="否" style="edgeLabel;html=1;align=center;verticalAlign=middle;resizable=0;points=[];fontColor=#1A1A1A;" vertex="1" connectable="0" parent="4TwKBGxvVmi3ybK4Pog2-20">
          <mxGeometry x="0.0815" y="3" relative="1" as="geometry">
            <mxPoint as="offset" />
          </mxGeometry>
        </mxCell>
        <mxCell id="4TwKBGxvVmi3ybK4Pog2-7" value="检查是否有Trigger" style="rhombus;whiteSpace=wrap;html=1;rounded=0;fontColor=#1A1A1A;strokeColor=#FFFFFF;fillColor=#EEEEEE;" vertex="1" parent="WIyWlLk6GJQsqaUBKTNV-1">
          <mxGeometry x="420" y="180" width="140" height="80" as="geometry" />
        </mxCell>
        <mxCell id="4TwKBGxvVmi3ybK4Pog2-14" value="" style="edgeStyle=orthogonalEdgeStyle;curved=0;rounded=1;orthogonalLoop=1;jettySize=auto;html=1;fontColor=#FFFFFF;strokeColor=#FFFFFF;" edge="1" parent="WIyWlLk6GJQsqaUBKTNV-1" source="4TwKBGxvVmi3ybK4Pog2-8" target="4TwKBGxvVmi3ybK4Pog2-13">
          <mxGeometry relative="1" as="geometry" />
        </mxCell>
        <mxCell id="4TwKBGxvVmi3ybK4Pog2-8" value="创建Trigger" style="whiteSpace=wrap;html=1;fillColor=#EEEEEE;strokeColor=#FFFFFF;fontColor=#1A1A1A;rounded=0;" vertex="1" parent="WIyWlLk6GJQsqaUBKTNV-1">
          <mxGeometry x="430" y="70" width="120" height="60" as="geometry" />
        </mxCell>
        <mxCell id="4TwKBGxvVmi3ybK4Pog2-18" value="" style="edgeStyle=orthogonalEdgeStyle;curved=0;rounded=1;orthogonalLoop=1;jettySize=auto;html=1;fontColor=#FFFFFF;strokeColor=#FFFFFF;" edge="1" parent="WIyWlLk6GJQsqaUBKTNV-1" source="4TwKBGxvVmi3ybK4Pog2-13" target="4TwKBGxvVmi3ybK4Pog2-17">
          <mxGeometry relative="1" as="geometry" />
        </mxCell>
        <mxCell id="4TwKBGxvVmi3ybK4Pog2-13" value="等待玩家进入Trigger" style="whiteSpace=wrap;html=1;fillColor=#EEEEEE;strokeColor=#FFFFFF;fontColor=#1A1A1A;rounded=0;" vertex="1" parent="WIyWlLk6GJQsqaUBKTNV-1">
          <mxGeometry x="640" y="70" width="120" height="60" as="geometry" />
        </mxCell>
        <mxCell id="4TwKBGxvVmi3ybK4Pog2-24" value="" style="edgeStyle=orthogonalEdgeStyle;curved=0;rounded=1;orthogonalLoop=1;jettySize=auto;html=1;fontColor=#FFFFFF;strokeColor=#FFFFFF;" edge="1" parent="WIyWlLk6GJQsqaUBKTNV-1" source="4TwKBGxvVmi3ybK4Pog2-15" target="4TwKBGxvVmi3ybK4Pog2-25">
          <mxGeometry relative="1" as="geometry">
            <mxPoint x="890" y="330" as="targetPoint" />
          </mxGeometry>
        </mxCell>
        <mxCell id="4TwKBGxvVmi3ybK4Pog2-15" value="移除Trigger&lt;br&gt;关闭上一个房间出口" style="whiteSpace=wrap;html=1;fillColor=#EEEEEE;strokeColor=#FFFFFF;fontColor=#1A1A1A;rounded=0;" vertex="1" parent="WIyWlLk6GJQsqaUBKTNV-1">
          <mxGeometry x="830" y="190" width="120" height="60" as="geometry" />
        </mxCell>
        <mxCell id="4TwKBGxvVmi3ybK4Pog2-19" style="edgeStyle=orthogonalEdgeStyle;curved=0;rounded=1;orthogonalLoop=1;jettySize=auto;html=1;entryX=0.5;entryY=0;entryDx=0;entryDy=0;fontColor=#FFFFFF;strokeColor=#FFFFFF;" edge="1" parent="WIyWlLk6GJQsqaUBKTNV-1" source="4TwKBGxvVmi3ybK4Pog2-17" target="4TwKBGxvVmi3ybK4Pog2-15">
          <mxGeometry relative="1" as="geometry" />
        </mxCell>
        <mxCell id="4TwKBGxvVmi3ybK4Pog2-17" value="移除Trigger" style="whiteSpace=wrap;html=1;fillColor=#EEEEEE;strokeColor=#FFFFFF;fontColor=#1A1A1A;rounded=0;" vertex="1" parent="WIyWlLk6GJQsqaUBKTNV-1">
          <mxGeometry x="830" y="70" width="120" height="60" as="geometry" />
        </mxCell>
        <mxCell id="4TwKBGxvVmi3ybK4Pog2-28" value="" style="edgeStyle=orthogonalEdgeStyle;curved=0;rounded=1;orthogonalLoop=1;jettySize=auto;html=1;fontColor=#FFFFFF;strokeColor=#FFFFFF;" edge="1" parent="WIyWlLk6GJQsqaUBKTNV-1" source="4TwKBGxvVmi3ybK4Pog2-25" target="4TwKBGxvVmi3ybK4Pog2-27">
          <mxGeometry relative="1" as="geometry" />
        </mxCell>
        <mxCell id="4TwKBGxvVmi3ybK4Pog2-30" value="是" style="edgeLabel;html=1;align=center;verticalAlign=middle;resizable=0;points=[];fontColor=#1A1A1A;" vertex="1" connectable="0" parent="4TwKBGxvVmi3ybK4Pog2-28">
          <mxGeometry x="-0.2889" y="2" relative="1" as="geometry">
            <mxPoint as="offset" />
          </mxGeometry>
        </mxCell>
        <mxCell id="4TwKBGxvVmi3ybK4Pog2-33" value="" style="edgeStyle=orthogonalEdgeStyle;curved=0;rounded=1;orthogonalLoop=1;jettySize=auto;html=1;fontColor=#FFFFFF;strokeColor=#FFFFFF;" edge="1" parent="WIyWlLk6GJQsqaUBKTNV-1" source="4TwKBGxvVmi3ybK4Pog2-25" target="4TwKBGxvVmi3ybK4Pog2-32">
          <mxGeometry relative="1" as="geometry" />
        </mxCell>
        <mxCell id="4TwKBGxvVmi3ybK4Pog2-34" value="否" style="edgeLabel;html=1;align=center;verticalAlign=middle;resizable=0;points=[];fontColor=#1A1A1A;" vertex="1" connectable="0" parent="4TwKBGxvVmi3ybK4Pog2-33">
          <mxGeometry x="-0.7111" relative="1" as="geometry">
            <mxPoint as="offset" />
          </mxGeometry>
        </mxCell>
        <mxCell id="4TwKBGxvVmi3ybK4Pog2-25" value="检查是否有房间流程配置" style="rhombus;whiteSpace=wrap;html=1;rounded=0;fontColor=#1A1A1A;strokeColor=#FFFFFF;fillColor=#EEEEEE;" vertex="1" parent="WIyWlLk6GJQsqaUBKTNV-1">
          <mxGeometry x="820" y="300" width="140" height="80" as="geometry" />
        </mxCell>
        <mxCell id="4TwKBGxvVmi3ybK4Pog2-36" value="" style="edgeStyle=orthogonalEdgeStyle;curved=0;rounded=1;orthogonalLoop=1;jettySize=auto;html=1;fontColor=#FFFFFF;strokeColor=#FFFFFF;" edge="1" parent="WIyWlLk6GJQsqaUBKTNV-1" source="4TwKBGxvVmi3ybK4Pog2-27" target="4TwKBGxvVmi3ybK4Pog2-35">
          <mxGeometry relative="1" as="geometry" />
        </mxCell>
        <mxCell id="4TwKBGxvVmi3ybK4Pog2-27" value="创建房间流程" style="whiteSpace=wrap;html=1;fillColor=#EEEEEE;strokeColor=#FFFFFF;fontColor=#1A1A1A;rounded=0;" vertex="1" parent="WIyWlLk6GJQsqaUBKTNV-1">
          <mxGeometry x="830" y="460" width="120" height="60" as="geometry" />
        </mxCell>
        <mxCell id="-SLU4qzmXyaYSH7IR36Y-0" style="edgeStyle=orthogonalEdgeStyle;curved=0;rounded=1;orthogonalLoop=1;jettySize=auto;html=1;fontColor=#FFFFFF;strokeColor=#FFFFFF;" edge="1" parent="WIyWlLk6GJQsqaUBKTNV-1" source="4TwKBGxvVmi3ybK4Pog2-32" target="-SLU4qzmXyaYSH7IR36Y-1">
          <mxGeometry relative="1" as="geometry">
            <mxPoint x="510" y="340" as="targetPoint" />
          </mxGeometry>
        </mxCell>
        <mxCell id="4TwKBGxvVmi3ybK4Pog2-32" value="区域流程结束" style="whiteSpace=wrap;html=1;fillColor=#EEEEEE;strokeColor=#FFFFFF;fontColor=#1A1A1A;rounded=0;" vertex="1" parent="WIyWlLk6GJQsqaUBKTNV-1">
          <mxGeometry x="640" y="310" width="120" height="60" as="geometry" />
        </mxCell>
        <mxCell id="4TwKBGxvVmi3ybK4Pog2-46" style="edgeStyle=orthogonalEdgeStyle;curved=0;rounded=1;orthogonalLoop=1;jettySize=auto;html=1;entryX=0.5;entryY=1;entryDx=0;entryDy=0;fontColor=#FFFFFF;strokeColor=#FFFFFF;" edge="1" parent="WIyWlLk6GJQsqaUBKTNV-1" source="4TwKBGxvVmi3ybK4Pog2-35" target="4TwKBGxvVmi3ybK4Pog2-32">
          <mxGeometry relative="1" as="geometry" />
        </mxCell>
        <mxCell id="4TwKBGxvVmi3ybK4Pog2-35" value="按照房间流程节点逐步运行直到所有节点执行完毕" style="whiteSpace=wrap;html=1;fillColor=#EEEEEE;strokeColor=#FFFFFF;fontColor=#1A1A1A;rounded=0;" vertex="1" parent="WIyWlLk6GJQsqaUBKTNV-1">
          <mxGeometry x="640" y="460" width="120" height="60" as="geometry" />
        </mxCell>
        <mxCell id="4TwKBGxvVmi3ybK4Pog2-45" value="" style="edgeStyle=orthogonalEdgeStyle;curved=0;rounded=1;orthogonalLoop=1;jettySize=auto;html=1;fontColor=#FFFFFF;strokeColor=#FFFFFF;" edge="1" parent="WIyWlLk6GJQsqaUBKTNV-1" source="4TwKBGxvVmi3ybK4Pog2-38" target="4TwKBGxvVmi3ybK4Pog2-44">
          <mxGeometry relative="1" as="geometry" />
        </mxCell>
        <mxCell id="4TwKBGxvVmi3ybK4Pog2-38" value="显示关卡奖励" style="rounded=1;whiteSpace=wrap;html=1;fontColor=#1A1A1A;strokeColor=#FFFFFF;fillColor=#EEEEEE;" vertex="1" parent="WIyWlLk6GJQsqaUBKTNV-1">
          <mxGeometry x="40" y="310" width="120" height="60" as="geometry" />
        </mxCell>
        <mxCell id="4TwKBGxvVmi3ybK4Pog2-44" value="等待玩家选择出口&lt;br&gt;关卡结束" style="whiteSpace=wrap;html=1;fillColor=#EEEEEE;strokeColor=#FFFFFF;fontColor=#1A1A1A;rounded=1;" vertex="1" parent="WIyWlLk6GJQsqaUBKTNV-1">
          <mxGeometry x="40" y="450" width="120" height="60" as="geometry" />
        </mxCell>
        <mxCell id="-SLU4qzmXyaYSH7IR36Y-2" style="edgeStyle=orthogonalEdgeStyle;curved=0;rounded=1;orthogonalLoop=1;jettySize=auto;html=1;entryX=0.5;entryY=1;entryDx=0;entryDy=0;fontColor=#FFFFFF;strokeColor=#FFFFFF;" edge="1" parent="WIyWlLk6GJQsqaUBKTNV-1" source="-SLU4qzmXyaYSH7IR36Y-1" target="4TwKBGxvVmi3ybK4Pog2-2">
          <mxGeometry relative="1" as="geometry" />
        </mxCell>
        <mxCell id="-SLU4qzmXyaYSH7IR36Y-1" value="开启当前区域出口" style="rounded=0;whiteSpace=wrap;html=1;fontColor=#1A1A1A;strokeColor=#FFFFFF;fillColor=#EEEEEE;" vertex="1" parent="WIyWlLk6GJQsqaUBKTNV-1">
          <mxGeometry x="440" y="310" width="120" height="60" as="geometry" />
        </mxCell>
      </root>
    </mxGraphModel>
  </diagram>
  <diagram id="hVh3S_QwCCJsvdcSCybt" name="区域流程">
    <mxGraphModel dx="1422" dy="794" grid="1" gridSize="10" guides="1" tooltips="1" connect="1" arrows="1" fold="1" page="1" pageScale="1" pageWidth="1169" pageHeight="827" background="#182E3E" math="0" shadow="0">
      <root>
        <mxCell id="Ddt-ELeq4BXNmFYu-VZG-0" />
        <mxCell id="Ddt-ELeq4BXNmFYu-VZG-1" parent="Ddt-ELeq4BXNmFYu-VZG-0" />
        <mxCell id="e79GJdPbiGOrlER8b0B4-1" value="" style="edgeStyle=orthogonalEdgeStyle;curved=0;rounded=1;orthogonalLoop=1;jettySize=auto;html=1;fontColor=#FFFFFF;strokeColor=#FFFFFF;" edge="1" parent="Ddt-ELeq4BXNmFYu-VZG-1" source="Ddt-ELeq4BXNmFYu-VZG-2" target="e79GJdPbiGOrlER8b0B4-0">
          <mxGeometry relative="1" as="geometry" />
        </mxCell>
        <mxCell id="Ddt-ELeq4BXNmFYu-VZG-2" value="开启区域流程" style="rounded=0;whiteSpace=wrap;html=1;fontColor=#1A1A1A;strokeColor=#FFFFFF;fillColor=#EEEEEE;" vertex="1" parent="Ddt-ELeq4BXNmFYu-VZG-1">
          <mxGeometry x="110" y="50" width="120" height="60" as="geometry" />
        </mxCell>
        <mxCell id="e79GJdPbiGOrlER8b0B4-3" value="" style="edgeStyle=orthogonalEdgeStyle;curved=0;rounded=1;orthogonalLoop=1;jettySize=auto;html=1;fontColor=#FFFFFF;strokeColor=#FFFFFF;" edge="1" parent="Ddt-ELeq4BXNmFYu-VZG-1" source="e79GJdPbiGOrlER8b0B4-0" target="e79GJdPbiGOrlER8b0B4-2">
          <mxGeometry relative="1" as="geometry" />
        </mxCell>
        <mxCell id="e79GJdPbiGOrlER8b0B4-4" value="是" style="edgeLabel;html=1;align=center;verticalAlign=middle;resizable=0;points=[];fontColor=#1A1A1A;" vertex="1" connectable="0" parent="e79GJdPbiGOrlER8b0B4-3">
          <mxGeometry x="-0.2667" y="2" relative="1" as="geometry">
            <mxPoint as="offset" />
          </mxGeometry>
        </mxCell>
        <mxCell id="e79GJdPbiGOrlER8b0B4-5" style="edgeStyle=orthogonalEdgeStyle;curved=0;rounded=1;orthogonalLoop=1;jettySize=auto;html=1;fontColor=#FFFFFF;strokeColor=#FFFFFF;" edge="1" parent="Ddt-ELeq4BXNmFYu-VZG-1" source="e79GJdPbiGOrlER8b0B4-0" target="e79GJdPbiGOrlER8b0B4-8">
          <mxGeometry relative="1" as="geometry">
            <mxPoint x="400" y="200" as="targetPoint" />
          </mxGeometry>
        </mxCell>
        <mxCell id="e79GJdPbiGOrlER8b0B4-7" value="否" style="edgeLabel;html=1;align=center;verticalAlign=middle;resizable=0;points=[];fontColor=#1A1A1A;" vertex="1" connectable="0" parent="e79GJdPbiGOrlER8b0B4-5">
          <mxGeometry x="0.25" relative="1" as="geometry">
            <mxPoint as="offset" />
          </mxGeometry>
        </mxCell>
        <mxCell id="e79GJdPbiGOrlER8b0B4-0" value="检查是否有运行中的节点" style="rhombus;whiteSpace=wrap;html=1;fillColor=#EEEEEE;strokeColor=#FFFFFF;fontColor=#1A1A1A;rounded=0;" vertex="1" parent="Ddt-ELeq4BXNmFYu-VZG-1">
          <mxGeometry x="310" y="40" width="180" height="80" as="geometry" />
        </mxCell>
        <mxCell id="e79GJdPbiGOrlER8b0B4-10" value="" style="edgeStyle=orthogonalEdgeStyle;curved=0;rounded=1;orthogonalLoop=1;jettySize=auto;html=1;fontColor=#FFFFFF;strokeColor=#FFFFFF;" edge="1" parent="Ddt-ELeq4BXNmFYu-VZG-1" source="e79GJdPbiGOrlER8b0B4-2" target="e79GJdPbiGOrlER8b0B4-9">
          <mxGeometry relative="1" as="geometry" />
        </mxCell>
        <mxCell id="e79GJdPbiGOrlER8b0B4-2" value="等待节点执行结束" style="whiteSpace=wrap;html=1;fillColor=#EEEEEE;strokeColor=#FFFFFF;fontColor=#1A1A1A;rounded=0;" vertex="1" parent="Ddt-ELeq4BXNmFYu-VZG-1">
          <mxGeometry x="820" y="50" width="120" height="60" as="geometry" />
        </mxCell>
        <mxCell id="e79GJdPbiGOrlER8b0B4-12" value="" style="edgeStyle=orthogonalEdgeStyle;curved=0;rounded=1;orthogonalLoop=1;jettySize=auto;html=1;fontColor=#FFFFFF;strokeColor=#FFFFFF;" edge="1" parent="Ddt-ELeq4BXNmFYu-VZG-1" source="e79GJdPbiGOrlER8b0B4-8" target="e79GJdPbiGOrlER8b0B4-11">
          <mxGeometry relative="1" as="geometry" />
        </mxCell>
        <mxCell id="e79GJdPbiGOrlER8b0B4-14" value="" style="edgeStyle=orthogonalEdgeStyle;curved=0;rounded=1;orthogonalLoop=1;jettySize=auto;html=1;fontColor=#FFFFFF;strokeColor=#FFFFFF;" edge="1" parent="Ddt-ELeq4BXNmFYu-VZG-1" source="e79GJdPbiGOrlER8b0B4-8" target="e79GJdPbiGOrlER8b0B4-13">
          <mxGeometry relative="1" as="geometry" />
        </mxCell>
        <mxCell id="e79GJdPbiGOrlER8b0B4-8" value="检查是否有后续节点" style="rhombus;whiteSpace=wrap;html=1;rounded=0;fontColor=#1A1A1A;strokeColor=#FFFFFF;fillColor=#EEEEEE;" vertex="1" parent="Ddt-ELeq4BXNmFYu-VZG-1">
          <mxGeometry x="310" y="160" width="180" height="80" as="geometry" />
        </mxCell>
        <mxCell id="ZWS11pBsPxVWaYdIAYyw-1" value="" style="edgeStyle=orthogonalEdgeStyle;curved=0;rounded=1;orthogonalLoop=1;jettySize=auto;html=1;fontColor=#FFFFFF;strokeColor=#FFFFFF;" edge="1" parent="Ddt-ELeq4BXNmFYu-VZG-1" source="e79GJdPbiGOrlER8b0B4-9" target="ZWS11pBsPxVWaYdIAYyw-0">
          <mxGeometry relative="1" as="geometry" />
        </mxCell>
        <mxCell id="e79GJdPbiGOrlER8b0B4-9" value="节点执行结束" style="whiteSpace=wrap;html=1;fillColor=#EEEEEE;strokeColor=#FFFFFF;fontColor=#1A1A1A;rounded=0;" vertex="1" parent="Ddt-ELeq4BXNmFYu-VZG-1">
          <mxGeometry x="820" y="260" width="120" height="60" as="geometry" />
        </mxCell>
        <mxCell id="e79GJdPbiGOrlER8b0B4-11" value="流程结束" style="whiteSpace=wrap;html=1;fillColor=#EEEEEE;strokeColor=#FFFFFF;fontColor=#1A1A1A;rounded=0;" vertex="1" parent="Ddt-ELeq4BXNmFYu-VZG-1">
          <mxGeometry x="110" y="170" width="120" height="60" as="geometry" />
        </mxCell>
        <mxCell id="e79GJdPbiGOrlER8b0B4-17" style="edgeStyle=orthogonalEdgeStyle;curved=0;rounded=1;orthogonalLoop=1;jettySize=auto;html=1;entryX=0;entryY=0.5;entryDx=0;entryDy=0;fontColor=#FFFFFF;strokeColor=#FFFFFF;" edge="1" parent="Ddt-ELeq4BXNmFYu-VZG-1" source="e79GJdPbiGOrlER8b0B4-13" target="e79GJdPbiGOrlER8b0B4-2">
          <mxGeometry relative="1" as="geometry" />
        </mxCell>
        <mxCell id="e79GJdPbiGOrlER8b0B4-13" value="初始化节点" style="whiteSpace=wrap;html=1;fillColor=#EEEEEE;strokeColor=#FFFFFF;fontColor=#1A1A1A;rounded=0;" vertex="1" parent="Ddt-ELeq4BXNmFYu-VZG-1">
          <mxGeometry x="550" y="170" width="120" height="60" as="geometry" />
        </mxCell>
        <mxCell id="ZWS11pBsPxVWaYdIAYyw-2" style="edgeStyle=orthogonalEdgeStyle;curved=0;rounded=1;orthogonalLoop=1;jettySize=auto;html=1;entryX=0.5;entryY=1;entryDx=0;entryDy=0;fontColor=#FFFFFF;strokeColor=#FFFFFF;" edge="1" parent="Ddt-ELeq4BXNmFYu-VZG-1" source="ZWS11pBsPxVWaYdIAYyw-0" target="e79GJdPbiGOrlER8b0B4-8">
          <mxGeometry relative="1" as="geometry" />
        </mxCell>
        <mxCell id="ZWS11pBsPxVWaYdIAYyw-0" value="执行节点退出操作" style="whiteSpace=wrap;html=1;fillColor=#EEEEEE;strokeColor=#FFFFFF;fontColor=#1A1A1A;rounded=0;" vertex="1" parent="Ddt-ELeq4BXNmFYu-VZG-1">
          <mxGeometry x="550" y="260" width="120" height="60" as="geometry" />
        </mxCell>
      </root>
    </mxGraphModel>
  </diagram>
</mxfile>
